# xmcd CD database file
#
# Track frame offsets:
#	187
#	18230
#	37170
#
# Disc length: 789 seconds
#
# Revision: 4
# Processed by: cddbd v1.5.2PL0 Copyright (c) Steve Scherf et al.
# Submitted via: CDex 1.51
#
DISCID=1d031303
DTITLE=Elton John - Candle in the Wind 1997_[12cmSingleCD]
DYEAR=1997
DGENRE=Rock
TTITLE0=Something About the Way You Look Tonight
TTITLE1=Candle in the Wind 1997
TTITLE2=You Can Make History (Young Again)
EXTD=YEAR: 1997
EXTT0=Elton John
EXTT1=Elton John
EXTT2=Elton John
PLAYORDER=
